{
    "asset": {
        "generator": "COLLADA2GLTF",
        "version": "2.0"
    },
    "scenes": [
        {
            "nodes": [
                0
            ]
        }
    ],
    "scene": 0,
    "nodes": [
        {
            "children": [
                8,
                7,
                6,
                5,
                4,
                3,
                2,
                1
            ],
            "name": "Y_UP"
        },
        {
            "matrix": [
                -0.18800000846385957,
                -0.8970000147819519,
                -0.39900001883506777,
                0.0,
                0.4420000314712525,
                -0.4400000274181366,
                0.781000018119812,
                0.0,
                -0.8770000338554382,
                -0.030000001192092897,
                0.48000001907348635,
                0.0,
                -227.3380126953125,
                -7.679000377655029,
                124.29500579833985,
                1.0
            ],
            "camera": 0,
            "name": "node-camera"
        },
        {
            "mesh": 0,
            "matrix": [
                1.0,
                0.0,
                0.0,
                0.0,
                0.0,
                1.0,
                0.0,
                0.0,
                0.0,
                0.0,
                1.0,
                0.0,
                -11.404000282287598,
                -1.915000081062317,
                -13.578001022338868,
                1.0
            ],
            "name": "node-geom6"
        },
        {
            "mesh": 1,
            "matrix": [
                1.0,
                0.0,
                0.0,
                0.0,
                0.0,
                1.0,
                0.0,
                0.0,
                0.0,
                0.0,
                1.0,
                0.0,
                -11.404000282287598,
                -1.915000081062317,
                -13.578001022338868,
                1.0
            ],
            "name": "node-geom5"
        },
        {
            "mesh": 2,
            "matrix": [
                1.0,
                0.0,
                0.0,
                0.0,
                0.0,
                1.0,
                0.0,
                0.0,
                0.0,
                0.0,
                1.0,
                0.0,
                -11.404000282287598,
                -1.915000081062317,
                -13.578001022338868,
                1.0
            ],
            "name": "node-geom4"
        },
        {
            "mesh": 3,
            "matrix": [
                1.0,
                0.0,
                0.0,
                0.0,
                0.0,
                1.0,
                0.0,
                0.0,
                0.0,
                0.0,
                1.0,
                0.0,
                -11.404000282287598,
                -1.915000081062317,
                -13.578001022338868,
                1.0
            ],
            "name": "node-geom3"
        },
        {
            "mesh": 4,
            "matrix": [
                1.0,
                0.0,
                0.0,
                0.0,
                0.0,
                1.0,
                0.0,
                0.0,
                0.0,
                0.0,
                1.0,
                0.0,
                -11.404000282287598,
                -1.915000081062317,
                -13.578001022338868,
                1.0
            ],
            "name": "node-geom2"
        },
        {
            "mesh": 5,
            "matrix": [
                1.0,
                0.0,
                0.0,
                0.0,
                0.0,
                1.0,
                0.0,
                0.0,
                0.0,
                0.0,
                1.0,
                0.0,
                -11.404000282287598,
                -1.915000081062317,
                -13.578001022338868,
                1.0
            ],
            "name": "node-geom1"
        },
        {
            "mesh": 6,
            "matrix": [
                1.0,
                0.0,
                0.0,
                0.0,
                0.0,
                1.0,
                0.0,
                0.0,
                0.0,
                0.0,
                1.0,
                0.0,
                -11.404000282287598,
                -1.915000081062317,
                -13.578001022338868,
                1.0
            ],
            "name": "node-geom0"
        }
    ],
    "cameras": [
        {
            "perspective": {
                "aspectRatio": 1.3645999431610108,
                "yfov": 0.34906554222106936,
                "zfar": 326.4892883300781,
                "znear": 191.9947967529297
            },
            "type": "perspective",
            "name": "camera"
        }
    ],
    "meshes": [
        {
            "primitives": [
                {
                    "attributes": {
                        "COLOR_0": 1,
                        "NORMAL": 2,
                        "POSITION": 3
                    },
                    "indices": 0,
                    "mode": 4,
                    "material": 0
                }
            ],
            "name": "geom6"
        },
        {
            "primitives": [
                {
                    "attributes": {
                        "COLOR_0": 5,
                        "NORMAL": 6,
                        "POSITION": 7
                    },
                    "indices": 4,
                    "mode": 4,
                    "material": 1
                }
            ],
            "name": "geom5"
        },
        {
            "primitives": [
                {
                    "attributes": {
                        "COLOR_0": 9,
                        "NORMAL": 10,
                        "POSITION": 11
                    },
                    "indices": 8,
                    "mode": 4,
                    "material": 2
                }
            ],
            "name": "geom4"
        },
        {
            "primitives": [
                {
                    "attributes": {
                        "COLOR_0": 13,
                        "NORMAL": 14,
                        "POSITION": 15
                    },
                    "indices": 12,
                    "mode": 4,
                    "material": 3
                }
            ],
            "name": "geom3"
        },
        {
            "primitives": [
                {
                    "attributes": {
                        "COLOR_0": 17,
                        "NORMAL": 18,
                        "POSITION": 19
                    },
                    "indices": 16,
                    "mode": 4,
                    "material": 4
                }
            ],
            "name": "geom2"
        },
        {
            "primitives": [
                {
                    "attributes": {
                        "COLOR_0": 21,
                        "NORMAL": 22,
                        "POSITION": 23
                    },
                    "indices": 20,
                    "mode": 4,
                    "material": 5
                }
            ],
            "name": "geom1"
        },
        {
            "primitives": [
                {
                    "attributes": {
                        "COLOR_0": 25,
                        "NORMAL": 26,
                        "POSITION": 27
                    },
                    "indices": 24,
                    "mode": 4,
                    "material": 6
                }
            ],
            "name": "geom0"
        }
    ],
    "accessors": [
        {
            "bufferView": 0,
            "byteOffset": 0,
            "componentType": 5123,
            "count": 5331,
            "max": [
                976
            ],
            "min": [
                0
            ],
            "type": "SCALAR"
        },
        {
            "bufferView": 1,
            "byteOffset": 0,
            "componentType": 5126,
            "count": 977,
            "max": [
                0.0,
                0.0,
                1.0
            ],
            "min": [
                0.0,
                0.0,
                1.0
            ],
            "type": "VEC3"
        },
        {
            "bufferView": 1,
            "byteOffset": 11724,
            "componentType": 5126,
            "count": 977,
            "max": [
                1.2134000062942505,
                0.9980999827384948,
                1.160599946975708
            ],
            "min": [
                -1.2134000062942505,
                -0.993499994277954,
                -1.160599946975708
            ],
            "type": "VEC3"
        },
        {
            "bufferView": 1,
            "byteOffset": 23448,
            "componentType": 5126,
            "count": 977,
            "max": [
                29.202299118041993,
                -20.955699920654298,
                1.3797999620437625
            ],
            "min": [
                3.4746999740600588,
                -39.48640060424805,
                -10.866399765014649
            ],
            "type": "VEC3"
        },
        {
            "bufferView": 0,
            "byteOffset": 10662,
            "componentType": 5123,
            "count": 40854,
            "max": [
                7643
            ],
            "min": [
                0
            ],
            "type": "SCALAR"
        },
        {
            "bufferView": 1,
            "byteOffset": 35172,
            "componentType": 5126,
            "count": 7644,
            "max": [
                0.0,
                0.0,
                1.0
            ],
            "min": [
                0.0,
                0.0,
                1.0
            ],
            "type": "VEC3"
        },
        {
            "bufferView": 1,
            "byteOffset": 126900,
            "componentType": 5126,
            "count": 7644,
            "max": [
                1.3389999866485596,
                1.3496999740600589,
                1.334299921989441
            ],
            "min": [
                -1.3389999866485596,
                -1.3496999740600589,
                -1.334299921989441
            ],
            "type": "VEC3"
        },
        {
            "bufferView": 1,
            "byteOffset": 218628,
            "componentType": 5126,
            "count": 7644,
            "max": [
                36.071998596191409,
                13.016200065612792,
                17.337299346923829
            ],
            "min": [
                -18.2903995513916,
                -40.01309967041016,
                -20.672100067138673
            ],
            "type": "VEC3"
        },
        {
            "bufferView": 0,
            "byteOffset": 92370,
            "componentType": 5123,
            "count": 39912,
            "max": [
                7344
            ],
            "min": [
                0
            ],
            "type": "SCALAR"
        },
        {
            "bufferView": 1,
            "byteOffset": 310356,
            "componentType": 5126,
            "count": 7345,
            "max": [
                0.0,
                0.0,
                1.0
            ],
            "min": [
                0.0,
                0.0,
                1.0
            ],
            "type": "VEC3"
        },
        {
            "bufferView": 1,
            "byteOffset": 398496,
            "componentType": 5126,
            "count": 7345,
            "max": [
                1.340499997138977,
                1.3488999605178834,
                1.3252999782562256
            ],
            "min": [
                -1.340499997138977,
                -1.3488999605178834,
                -1.3252999782562256
            ],
            "type": "VEC3"
        },
        {
            "bufferView": 1,
            "byteOffset": 486636,
            "componentType": 5126,
            "count": 7345,
            "max": [
                32.610198974609378,
                0.2798999845981598,
                16.164499282836919
            ],
            "min": [
                -23.6294002532959,
                -33.059200286865237,
                -28.34439849853516
            ],
            "type": "VEC3"
        },
        {
            "bufferView": 0,
            "byteOffset": 172194,
            "componentType": 5123,
            "count": 39549,
            "max": [
                7497
            ],
            "min": [
                0
            ],
            "type": "SCALAR"
        },
        {
            "bufferView": 1,
            "byteOffset": 574776,
            "componentType": 5126,
            "count": 7498,
            "max": [
                0.5,
                0.5,
                1.0
            ],
            "min": [
                0.0,
                0.0,
                1.0
            ],
            "type": "VEC3"
        },
        {
            "bufferView": 1,
            "byteOffset": 664752,
            "componentType": 5126,
            "count": 7498,
            "max": [
                1.3181999921798709,
                1.34280002117157,
                1.319700002670288
            ],
            "min": [
                -1.3181999921798709,
                -1.34280002117157,
                -1.319700002670288
            ],
            "type": "VEC3"
        },
        {
            "bufferView": 1,
            "byteOffset": 754728,
            "componentType": 5126,
            "count": 7498,
            "max": [
                20.775999069213868,
                1.147499918937683,
                14.05639934539795
            ],
            "min": [
                -26.666099548339845,
                -34.53279876708985,
                -34.6870002746582
            ],
            "type": "VEC3"
        },
        {
            "bufferView": 0,
            "byteOffset": 251292,
            "componentType": 5123,
            "count": 42267,
            "max": [
                8019
            ],
            "min": [
                0
            ],
            "type": "SCALAR"
        },
        {
            "bufferView": 1,
            "byteOffset": 844704,
            "componentType": 5126,
            "count": 8020,
            "max": [
                0.5,
                1.0,
                1.0
            ],
            "min": [
                0.0,
                0.5,
                0.0
            ],
            "type": "VEC3"
        },
        {
            "bufferView": 1,
            "byteOffset": 940944,
            "componentType": 5126,
            "count": 8020,
            "max": [
                1.305999994277954,
                1.3499000072479249,
                1.3493999242782593
            ],
            "min": [
                -1.305999994277954,
                -1.3499000072479249,
                -1.3493999242782593
            ],
            "type": "VEC3"
        },
        {
            "bufferView": 1,
            "byteOffset": 1037184,
            "componentType": 5126,
            "count": 8020,
            "max": [
                39.20069885253906,
                40.17720031738281,
                54.62949752807617
            ],
            "min": [
                -13.60669994354248,
                -13.297100067138672,
                -2.0
            ],
            "type": "VEC3"
        },
        {
            "bufferView": 0,
            "byteOffset": 335826,
            "componentType": 5123,
            "count": 42255,
            "max": [
                7882
            ],
            "min": [
                0
            ],
            "type": "SCALAR"
        },
        {
            "bufferView": 1,
            "byteOffset": 1133424,
            "componentType": 5126,
            "count": 7883,
            "max": [
                0.0,
                1.0,
                0.0
            ],
            "min": [
                0.0,
                1.0,
                0.0
            ],
            "type": "VEC3"
        },
        {
            "bufferView": 1,
            "byteOffset": 1228020,
            "componentType": 5126,
            "count": 7883,
            "max": [
                1.3456000089645386,
                1.3492000102996829,
                1.182600021362305
            ],
            "min": [
                -1.3456000089645386,
                -1.3499000072479249,
                -1.182600021362305
            ],
            "type": "VEC3"
        },
        {
            "bufferView": 1,
            "byteOffset": 1322616,
            "componentType": 5126,
            "count": 7883,
            "max": [
                40.80939865112305,
                32.69289779663086,
                60.443397521972659
            ],
            "min": [
                -0.8763999938964844,
                0.002099999925121665,
                0.3211999833583832
            ],
            "type": "VEC3"
        },
        {
            "bufferView": 0,
            "byteOffset": 420336,
            "componentType": 5123,
            "count": 42552,
            "max": [
                8009
            ],
            "min": [
                0
            ],
            "type": "SCALAR"
        },
        {
            "bufferView": 1,
            "byteOffset": 1417212,
            "componentType": 5126,
            "count": 8010,
            "max": [
                0.6499999761581421,
                1.0,
                0.6499999761581421
            ],
            "min": [
                0.0,
                0.8999999761581421,
                0.0
            ],
            "type": "VEC3"
        },
        {
            "bufferView": 1,
            "byteOffset": 1513332,
            "componentType": 5126,
            "count": 8010,
            "max": [
                1.3464999198913577,
                1.3425999879837037,
                1.3461999893188477
            ],
            "min": [
                -1.3464999198913577,
                -1.348099946975708,
                -1.3461999893188477
            ],
            "type": "VEC3"
        },
        {
            "bufferView": 1,
            "byteOffset": 1609452,
            "componentType": 5126,
            "count": 8010,
            "max": [
                47.68589782714844,
                34.313697814941409,
                63.72909927368164
            ],
            "min": [
                0.37279999256134035,
                -0.7353999614715576,
                24.105998992919927
            ],
            "type": "VEC3"
        }
    ],
    "materials": [
        {
            "pbrMetallicRoughness": {
                "metallicFactor": 0.0
            },
            "name": "default-effect"
        },
        {
            "pbrMetallicRoughness": {
                "metallicFactor": 0.0
            },
            "name": "default-effect"
        },
        {
            "pbrMetallicRoughness": {
                "metallicFactor": 0.0
            },
            "name": "default-effect"
        },
        {
            "pbrMetallicRoughness": {
                "metallicFactor": 0.0
            },
            "name": "default-effect"
        },
        {
            "pbrMetallicRoughness": {
                "metallicFactor": 0.0
            },
            "name": "default-effect"
        },
        {
            "pbrMetallicRoughness": {
                "metallicFactor": 0.0
            },
            "name": "default-effect"
        },
        {
            "pbrMetallicRoughness": {
                "metallicFactor": 0.0
            },
            "name": "default-effect"
        }
    ],
    "bufferViews": [
        {
            "buffer": 0,
            "byteOffset": 1705572,
            "byteLength": 505440,
            "target": 34963
        },
        {
            "buffer": 0,
            "byteOffset": 0,
            "byteLength": 1705572,
            "byteStride": 12,
            "target": 34962
        }
    ],
    "buffers": [
        {
            "byteLength": 2211012,
            "uri": "data:application/octet-stream;base64,"
        }
    ]
}
